#!OML:ASF H:\Punching\Project 1\Capture day 1\Session 1\female.ASF
:FULLY-SPECIFIED
:DEGREES
1203
root 0.913303 15.2817 4.07681 -15.3889 -11.7437 7.07766
lowerback 9.00252 -0.716752 8.34635
upperback 0.818175 -0.385373 -5.65483
thorax -4.3043 -0.407462 -10.81
lowerneck -4.39292 10.797 12.2687
upperneck 35.4748 20.1265 -16.3339
head 16.7975 8.54848 -5.95153
rclavicle 1.38901e-014 -6.57977e-014
rhumerus 13.5935 24.0511 -61.7132
rradius 117.401
rwrist -14.0753
rhand -29.1297 10.4505
rfingers 7.12502
rthumb -2.47694 -19.5149
lclavicle 1.38901e-014 -6.57977e-014
lhumerus -5.45544 -9.61748 70.4098
lradius 138.773
lwrist 3.42455
lhand -27.9333 5.32437
lfingers 7.12502
lthumb -1.3215 35.3
rfemur -6.33417 8.42379 19.3479
rtibia 39.731
rfoot -15.773 -12.5813
rtoes 4.18346
lfemur -91.981 20.2886 -23.2939
ltibia 131.431
lfoot 37.4596 -10.9894
ltoes -10.4776
1204
root 0.876641 15.2968 4.15726 -16.9687 -12.4612 7.57856
lowerback 9.70714 -0.556539 8.18949
upperback 1.33039 -0.159375 -6.0055
thorax -4.09679 -0.26049 -11.1476
lowerneck -3.98555 10.8816 12.5088
upperneck 35.5961 20.1648 -16.0761
head 16.759 8.6395 -5.89443
rclavicle -1.77415e-014 -2.127e-014
rhumerus 13.7726 24.5637 -63.3037
rradius 117.343
rwrist -13.4418
rhand -29.2947 10.6337
rfingers 7.12502
rthumb -2.63632 -19.3297
lclavicle -1.77415e-014 -2.127e-014
lhumerus -5.09219 -9.23225 69.6902
lradius 139.05
lwrist 3.70274
lhand -27.8136 5.69319
lfingers 7.12502
lthumb -1.20592 35.6695
rfemur -4.08578 8.50957 19.2759
rtibia 38.9402
rfoot -15.8721 -12.0092
rtoes 4.33422
lfemur -95.0749 21.4908 -23.0702
ltibia 130.812
lfoot 37.8369 -10.3501
ltoes -9.92952
1205
root 0.841025 15.3123 4.24027 -18.4576 -13.16 8.14112
lowerback 10.3059 -0.407634 8.01459
upperback 1.76625 0.0400467 -6.37274
thorax -3.91474 -0.131219 -11.4933
lowerneck -3.54634 10.9831 12.7726
upperneck 35.7343 20.2386 -15.8287
head 16.7374 8.74837 -5.84239
rclavicle -2.6339e-014 -2.14687e-014
rhumerus 13.9006 25.1356 -64.9006
rradius 117.302
rwrist -12.8688
rhand -29.4865 10.7941
rfingers 7.12502
rthumb -2.82157 -19.167
lclavicle -2.6339e-014 -2.14687e-014
lhumerus -4.83406 -8.7944 68.9477
lradius 139.331
lwrist 4.00129
lhand -27.6966 5.97774
lfingers 7.12502
lthumb -1.09285 35.9547
rfemur -1.98537 8.53196 19.0899
rtibia 38.1891
rfoot -15.9776 -11.3729
rtoes 4.43213
lfemur -98.0397 22.5356 -22.8174
ltibia 129.762
lfoot 37.9699 -9.33757
ltoes -9.06115
1206
root 0.805812 15.3288 4.32509 -19.8462 -13.8318 8.7475
lowerback 10.7803 -0.27067 7.82805
upperback 2.13879 0.212528 -6.74977
thorax -3.7349 -0.0180426 -11.8417
lowerneck -3.09346 11.1019 13.0528
upperneck 35.8782 20.3527 -15.6076
head 16.7342 8.87384 -5.79878
rclavicle -9.88954e-015 3.29983e-014
rhumerus 14.0031 25.75 -66.4804
rradius 117.287
rwrist -12.4461
rhand -29.6642 10.9359
rfingers 7.12502
rthumb -2.99318 -19.0229
lclavicle -9.88954e-015 3.29983e-014
lhumerus -4.65618 -8.30786 68.1846
lradius 139.618
lwrist 4.29538
lhand -27.6023 6.19988
lfingers 7.12502
lthumb -1.00178 36.1773
rfemur -0.079707 8.50558 18.8092
rtibia 37.569
rfoot -16.1399 -10.7031
rtoes 4.50669
lfemur -100.832 23.4216 -22.5156
ltibia 128.285
lfoot 37.8729 -8.02136
ltoes -7.95068
1207
root 0.770571 15.3466 4.41143 -21.1327 -14.4711 9.38894
lowerback 11.1345 -0.143076 7.62479
upperback 2.44586 0.362343 -7.1277
thorax -3.5619 0.0807903 -12.1789
lowerneck -2.61927 11.2337 13.3455
upperneck 36.0189 20.5069 -15.4284
head 16.7452 9.01473 -5.77008
rclavicle 3.89618e-014 3.85642e-014
rhumerus 14.0644 26.405 -68.0215
rradius 117.31
rwrist -12.2289
rhand -29.7934 11.0777
rfingers 7.12502
rthumb -3.11797 -18.8792
lclavicle 3.89618e-014 3.85642e-014
lhumerus -4.56619 -7.78912 67.4174
lradius 139.909
lwrist 4.5687
lhand -27.5454 6.37161
lfingers 7.12502
lthumb -0.946884 36.3493
rfemur 1.66763 8.44579 18.4465
rtibia 36.9994
rfoot -16.311 -10.0184
rtoes 4.52522
lfemur -103.416 24.1631 -22.1472
ltibia 126.386
lfoot 37.5686 -6.57131
ltoes -6.76603
1208
root 0.737275 15.3453 4.50599 -22.3406 -15.0656 10.0644
lowerback 11.3826 -0.0250293 7.38984
upperback 2.70647 0.489339 -7.50301
thorax -3.38463 0.166665 -12.4907
lowerneck -2.13051 11.3745 13.6391
upperneck 36.1404 20.6956 -15.2989
head 16.7615 9.16648 -5.75762
rclavicle 2.77305e-014 -1.98785e-015
rhumerus 14.0901 27.0851 -69.5
rradius 117.375
rwrist -12.2295
rhand -29.8522 11.2212
rfingers 7.12502
rthumb -3.17475 -18.7349
lclavicle 2.77305e-014 -1.98785e-015
lhumerus -4.53622 -7.24987 66.6547
lradius 140.19
lwrist 4.79725
lhand -27.5406 6.50026
lfingers 7.12502
lthumb -0.942171 36.4779
rfemur 3.26374 8.37249 18.0029
rtibia 36.5384
rfoot -16.5341 -9.34407
rtoes 4.49875
lfemur -105.99 24.7593 -21.6935
ltibia 124.201
lfoot 37.2655 -5.06194
ltoes -5.52857
1209
root 0.701679 15.3618 4.59578 -23.4124 -15.6135 10.7574
lowerback 11.4725 0.0870291 7.12648
upperback 2.90471 0.597713 -7.86656
thorax -3.1911 0.24148 -12.7662
lowerneck -1.6195 11.5239 13.9312
upperneck 36.2323 20.9213 -15.2287
head 16.7781 9.32991 -5.76485
rclavicle 1.18277e-014 -3.85642e-014
rhumerus 14.0716 27.7934 -70.9086
rradius 117.488
rwrist -12.4088
rhand -29.8358 11.3896
rfingers 7.12502
rthumb -3.15888 -18.5667
lclavicle 1.18277e-014 -3.85642e-014
lhumerus -4.57549 -6.70535 65.9174
lradius 140.451
lwrist 4.95522
lhand -27.5801 6.61013
lfingers 7.12502
lthumb -0.98039 36.5876
rfemur 4.69348 8.30634 17.5073
rtibia 36.0986
rfoot -16.7595 -8.69876
rtoes 4.44862
lfemur -108.14 25.2844 -21.1716
ltibia 121.513
lfoot 36.8047 -3.70106
ltoes -4.48541
1210
root 0.665502 15.379 4.68565 -24.3128 -16.1202 11.4512
lowerback 11.3743 0.196609 6.84082
upperback 3.03841 0.693892 -8.21255
thorax -2.96628 0.309079 -13.001
lowerneck -1.09497 11.6781 14.2143
upperneck 36.2847 21.1744 -15.2134
head 16.7872 9.50022 -5.7893
rclavicle -2.60408e-014 4.37326e-014
rhumerus 14.0088 28.5165 -72.2394
rradius 117.643
rwrist -12.6885
rhand -29.7502 11.5781
rfingers 7.12502
rthumb -3.07627 -18.3795
lclavicle -2.60408e-014 4.37326e-014
lhumerus -4.68334 -6.15732 65.2109
lradius 140.695
lwrist 5.04262
lhand -27.641 6.69043
lfingers 7.12502
lthumb -1.03917 36.6676
rfemur 5.89553 8.27023 16.9804
rtibia 35.7405
rfoot -17.0169 -8.10276
rtoes 4.39302
lfemur -110.122 25.7563 -20.5847
ltibia 118.439
lfoot 36.4276 -2.37286
ltoes -3.42365
1211
root 0.628837 15.3971 4.77438 -25.0214 -16.5838 12.1399
lowerback 11.0807 0.300144 6.53169
upperback 3.09876 0.77485 -8.53884
thorax -2.71691 0.366905 -13.1903
lowerneck -0.549564 11.8356 14.4826
upperneck 36.2956 21.45 -15.2455
head 16.7827 9.67587 -5.82806
rclavicle 1.59028e-015 -5.24792e-014
rhumerus 13.8843 29.2627 -73.4958
rradius 117.833
rwrist -12.9669
rhand -29.6367 11.7901
rfingers 7.12502
rthumb -2.96665 -18.169
lclavicle 1.59028e-015 -5.24792e-014
lhumerus -4.87674 -5.61146 64.5446
lradius 140.924
lwrist 5.06662
lhand -27.6901 6.76849
lfingers 7.12502
lthumb -1.08664 36.7455
rfemur 6.88764 8.26745 16.4295
rtibia 35.3762
rfoot -17.2516 -7.55272
rtoes 4.35305
lfemur -111.952 26.2022 -19.9439
ltibia 114.971
lfoot 36.2425 -1.12382
ltoes -2.49555
1212
root 0.591666 15.4163 4.86014 -25.538 -17.0035 12.8132
lowerback 10.6029 0.393397 6.20397
upperback 3.09121 0.838273 -8.84482
thorax -2.44376 0.41377 -13.3359
lowerneck -0.00726852 11.997 14.7278
upperneck 36.2832 21.7436 -15.3066
head 16.7747 9.8539 -5.87164
rclavicle -3.06128e-014 -1.98785e-014
rhumerus 13.6956 30.0272 -74.6773
rradius 118.039
rwrist -13.1392
rhand -29.5297 12.012
rfingers 7.12502
rthumb -2.86327 -17.9485
lclavicle -3.06128e-014 -1.98785e-014
lhumerus -5.15703 -5.06475 63.9141
lradius 141.153
lwrist 5.0553
lhand -27.7056 6.84924
lfingers 7.12502
lthumb -1.1016 36.8261
rfemur 7.63158 8.29705 15.8713
rtibia 35.0894
rfoot -17.502 -7.05906
rtoes 4.35917
lfemur -113.606 26.6582 -19.2315
ltibia 111.125
lfoot 36.2752 0.259074
ltoes -1.24927
1213
root 0.554204 15.4349 4.94248 -25.8956 -17.3852 13.4563
lowerback 9.99015 0.471208 5.87179
upperback 3.02669 0.882195 -9.12789
thorax -2.16222 0.44811 -13.4452
lowerneck 0.534611 12.1595 14.9499
upperneck 36.2522 22.0478 -15.3884
head 16.7617 10.0321 -5.91826
rclavicle 2.98177e-016 -8.5875e-014
rhumerus 13.4288 30.8052 -75.7857
rradius 118.252
rwrist -13.1281
rhand -29.4591 12.2126
rfingers 7.12502
rthumb -2.79506 -17.7488
lclavicle 2.98177e-016 -8.5875e-014
lhumerus -5.52735 -4.52147 63.3149
lradius 141.389
lwrist 5.04181
lhand -27.6749 6.93309
lfingers 7.12502
lthumb -1.07194 36.9101
rfemur 8.16715 8.34795 15.3295
rtibia 34.871
rfoot -17.7538 -6.62479
rtoes 4.39112
lfemur -115.025 27.1322 -18.4347
ltibia 106.879
lfoot 36.5311 1.64903
ltoes -0.123129
